<svg width="188" height="32" viewBox="0 0 188 32" fill="none" xmlns="http://www.w3.org/2000/svg">
<path d="M6.11636 23.1594V23.0688L15.0646 10.5128V7.66802H1.71981V11.0042H10.125V11.0948L1.35774 23.5732V26.4827H15.0905V23.1594H6.11636ZM26.3923 13.5516V19.8231C26.3923 21.0258 26.1078 21.9568 25.5647 22.6034C25.0086 23.2628 24.3233 23.5861 23.5215 23.5861C22.6939 23.5861 22.0991 23.3534 21.737 22.8879C21.375 22.4223 21.2069 21.5947 21.2069 20.4309V13.5516H17.7413V21.3361C17.7413 22.3059 17.8448 23.1335 18.0776 23.8319C18.3104 24.5301 18.6336 25.0861 19.0733 25.4999C19.5129 25.9137 20.0043 26.224 20.5732 26.418C21.1293 26.612 21.7759 26.7025 22.5 26.7025C23.2371 26.7025 23.9353 26.5602 24.5949 26.25C25.2543 25.9396 25.8362 25.4999 26.3405 24.9051H26.3923V26.4827H29.8577V13.5516H26.3923ZM40.6681 13.3318C39.8922 13.3318 39.181 13.5258 38.5086 13.8878C37.8362 14.25 37.2543 14.7801 36.7629 15.4525H36.7241V13.5516H33.2586V26.4827H36.7241V20.4827C36.7241 19.4999 37.0086 18.6853 37.5905 18.0517C38.1725 17.431 38.987 17.1077 40.0215 17.1077C40.2802 17.1077 40.5905 17.1206 40.9397 17.1465V13.3448C40.8879 13.3448 40.7974 13.3318 40.6681 13.3318ZM45.0776 11.7284C45.6595 11.7284 46.1637 11.5215 46.5905 11.1077C47.0043 10.6939 47.2242 10.2025 47.2242 9.60767C47.2242 9.03871 47.0043 8.5344 46.5905 8.12061C46.1637 7.70681 45.6595 7.49992 45.0776 7.49992C44.4827 7.49992 43.9656 7.70681 43.5518 8.12061C43.138 8.5344 42.931 9.03871 42.931 9.60767C42.931 9.9956 43.0216 10.3577 43.2155 10.681C43.3965 11.0042 43.6552 11.2628 43.9914 11.4439C44.3276 11.6379 44.6896 11.7284 45.0776 11.7284ZM43.3448 26.4827H46.8104V13.5516H43.3448V26.4827ZM64.875 26.4827H68.625V7.66802H64.875V26.4827ZM80.2241 13.3318C79.4224 13.3318 78.6595 13.4999 77.9353 13.8231C77.2112 14.1465 76.5905 14.612 76.0732 15.2198H76.0344V13.5516H72.5689V26.4827H76.0344V19.9784C76.0344 18.8533 76.2931 17.987 76.8233 17.3663C77.3535 16.7585 78.0646 16.4481 78.9698 16.4481C79.8103 16.4481 80.431 16.6939 80.8448 17.1723C81.2457 17.6637 81.4526 18.4913 81.4526 19.6809V26.4956H84.9181V18.8146C84.9181 17.8448 84.8018 17.0043 84.5818 16.2801C84.3491 15.5689 84.0258 15 83.5991 14.5732C83.1724 14.1594 82.681 13.8491 82.125 13.6422C81.569 13.4353 80.9354 13.3318 80.2241 13.3318ZM92.2629 26.7025C93.0517 26.7025 93.6983 26.6378 94.2026 26.4956C94.6939 26.3663 95.1982 26.1594 95.6897 25.8878L94.7974 23.1206C94.2026 23.431 93.6595 23.5732 93.1681 23.5732C92.7543 23.5732 92.4698 23.4439 92.2888 23.1723C92.1078 22.9137 92.0301 22.487 92.0301 21.918V16.4223H95.5473V13.5516H92.0301V8.94819L88.5646 9.32319V13.5516H87.0388V16.4223H88.5646V22.3965C88.5646 23.8188 88.8879 24.8922 89.5473 25.6162C90.2069 26.3404 91.112 26.7025 92.2629 26.7025ZM109.526 19.9008C109.526 18.6464 109.254 17.5215 108.737 16.5258C108.207 15.5301 107.457 14.7542 106.5 14.1853C105.53 13.6162 104.418 13.3318 103.177 13.3318C102.272 13.3318 101.418 13.4999 100.629 13.8231C99.8276 14.1594 99.1552 14.612 98.5863 15.1938C98.0172 15.7758 97.5776 16.487 97.2543 17.3146C96.9181 18.1421 96.7629 19.0473 96.7629 20.0042C96.7629 21.3232 97.0474 22.4999 97.6293 23.5215C98.2112 24.5559 99.0129 25.3448 100.021 25.8878C101.03 26.4309 102.155 26.7025 103.422 26.7025C104.664 26.7025 105.75 26.4827 106.707 26.0431C107.651 25.6033 108.414 25.0086 109.009 24.2586L106.759 22.1637C105.944 23.1465 104.909 23.6379 103.668 23.625C102.84 23.625 102.129 23.3921 101.547 22.9525C100.965 22.5128 100.578 21.918 100.371 21.1422H109.435C109.487 20.9353 109.526 20.5215 109.526 19.9008ZM103.293 16.3836C104.017 16.3836 104.625 16.5905 105.103 16.9913C105.569 17.3921 105.905 17.9482 106.086 18.6464H100.384C100.578 17.9223 100.927 17.3534 101.444 16.9654C101.961 16.5775 102.569 16.3836 103.293 16.3836ZM119.702 13.3318C118.926 13.3318 118.216 13.5258 117.543 13.8878C116.871 14.25 116.289 14.7801 115.797 15.4525H115.758V13.5516H112.294V26.4827H115.758V20.4827C115.758 19.4999 116.043 18.6853 116.625 18.0517C117.207 17.431 118.021 17.1077 119.057 17.1077C119.315 17.1077 119.625 17.1206 119.975 17.1465V13.3448C119.923 13.3448 119.832 13.3318 119.702 13.3318ZM129.879 13.3318C129.078 13.3318 128.314 13.4999 127.591 13.8231C126.867 14.1465 126.246 14.612 125.728 15.2198H125.689V13.5516H122.225V26.4827H125.689V19.9784C125.689 18.8533 125.949 17.987 126.478 17.3663C127.009 16.7585 127.72 16.4481 128.625 16.4481C129.465 16.4481 130.087 16.6939 130.5 17.1723C130.901 17.6637 131.107 18.4913 131.107 19.6809V26.4956H134.573V18.8146C134.573 17.8448 134.457 17.0043 134.237 16.2801C134.004 15.5689 133.681 15 133.255 14.5732C132.828 14.1594 132.337 13.8491 131.78 13.6422C131.224 13.4353 130.591 13.3318 129.879 13.3318ZM142.073 26.7025C143.702 26.7025 144.943 26.3404 145.798 25.5904C146.65 24.8533 147.091 23.8835 147.091 22.681C147.091 22.3706 147.064 22.0732 147.012 21.8145C146.845 20.9611 146.34 20.2629 145.513 19.7456C145.022 19.4353 144.065 19.0215 142.643 18.4913C141.956 18.2326 141.465 17.9999 141.155 17.793C140.845 17.5861 140.703 17.3534 140.703 17.0948C140.703 16.7844 140.832 16.5516 141.09 16.3836C141.35 16.2154 141.633 16.1249 141.97 16.1249C142.461 16.1249 142.978 16.2413 143.521 16.4741C144.065 16.7068 144.569 17.043 145.06 17.4956L146.741 14.9611C146.004 14.3922 145.255 13.9784 144.504 13.7197C143.742 13.4611 142.914 13.3318 142.008 13.3318C141.129 13.3318 140.328 13.4999 139.629 13.8102C138.931 14.1335 138.375 14.5862 137.961 15.1809C137.547 15.7758 137.354 16.4481 137.354 17.2112C137.354 17.625 137.393 17.9999 137.495 18.3361C137.587 18.6853 137.728 18.9956 137.909 19.2542C138.091 19.5258 138.297 19.7715 138.53 19.9784C138.763 20.1982 139.034 20.3922 139.358 20.5732C139.668 20.7542 139.978 20.8965 140.289 21.0258C140.599 21.1551 140.948 21.2844 141.336 21.4137C141.944 21.6207 142.397 21.7758 142.707 21.9051C143.017 22.0345 143.25 22.1767 143.431 22.3318C143.599 22.487 143.69 22.655 143.69 22.849C143.69 23.1723 143.548 23.431 143.263 23.625C142.978 23.8319 142.591 23.9223 142.099 23.9223C140.78 23.9223 139.591 23.4181 138.517 22.4094L136.836 24.8017C138.272 26.0689 140.018 26.7025 142.073 26.7025ZM157.487 13.3318C156.647 13.3318 155.871 13.487 155.147 13.7844C154.422 14.0947 153.802 14.5344 153.284 15.1163H153.233V6.98267H149.768V26.4827H153.233V19.9266C153.233 18.7887 153.492 17.9353 154.035 17.3404C154.564 16.7456 155.301 16.4481 156.258 16.4481C157.112 16.4481 157.746 16.6939 158.159 17.1594C158.573 17.6379 158.781 18.4525 158.781 19.5904V26.4956H162.259V18.7111C162.259 17.7542 162.142 16.9137 161.909 16.2154C161.677 15.5172 161.341 14.9482 160.914 14.5344C160.474 14.1206 159.982 13.8231 159.414 13.6293C158.845 13.4353 158.211 13.3318 157.487 13.3318ZM167.457 11.7284C168.039 11.7284 168.543 11.5215 168.97 11.1077C169.384 10.6939 169.603 10.2025 169.603 9.60767C169.603 9.03871 169.384 8.5344 168.97 8.12061C168.543 7.70681 168.039 7.49992 167.457 7.49992C166.862 7.49992 166.345 7.70681 165.931 8.12061C165.517 8.5344 165.31 9.03871 165.31 9.60767C165.31 9.9956 165.401 10.3577 165.594 10.681C165.775 11.0042 166.035 11.2628 166.37 11.4439C166.707 11.6379 167.069 11.7284 167.457 11.7284ZM165.725 26.4827H169.189V13.5516H165.725V26.4827ZM180.298 13.3318C178.643 13.3318 177.336 13.9008 176.38 15.0387H176.328V13.5516H172.862V31.7197H176.328V25.0344H176.38C177.298 26.1465 178.564 26.7025 180.194 26.7025C181.074 26.7025 181.901 26.5473 182.664 26.224C183.426 25.9137 184.086 25.4611 184.629 24.8922C185.172 24.3232 185.612 23.6119 185.922 22.7844C186.232 21.9568 186.388 21.0387 186.388 20.056C186.388 19.2801 186.284 18.5559 186.091 17.8577C185.884 17.1594 185.599 16.5387 185.237 15.9956C184.875 15.4525 184.436 14.974 183.944 14.5732C183.439 14.1724 182.871 13.862 182.25 13.6551C181.63 13.4482 180.97 13.3318 180.298 13.3318ZM179.561 23.599C178.926 23.599 178.358 23.4568 177.841 23.1723C177.323 22.8879 176.922 22.4612 176.625 21.918C176.328 21.3749 176.185 20.7671 176.185 20.0689C176.185 19.5646 176.263 19.0861 176.431 18.6335C176.599 18.1939 176.832 17.8059 177.129 17.4827C177.413 17.1723 177.775 16.9137 178.189 16.7327C178.603 16.5516 179.069 16.4481 179.561 16.4481C180.504 16.4481 181.293 16.7844 181.927 17.4439C182.548 18.1163 182.871 18.9826 182.871 20.0689C182.871 21.1163 182.56 21.9698 181.94 22.6163C181.319 23.2758 180.53 23.599 179.561 23.599Z" fill="black"/>
<path d="M56.222 26.8857C57.2888 26.8857 58.2134 26.5065 58.972 25.7478C59.7306 24.9892 60.1336 24.0884 60.1336 23.0215C60.1336 21.9785 59.7306 21.0539 58.972 20.2953C58.2134 19.5366 57.2888 19.1335 56.222 19.1335C55.1077 19.1335 54.1594 19.5129 53.4008 20.2715C52.6422 21.0302 52.2629 21.9547 52.2629 23.0215C52.2629 24.1121 52.6422 25.0129 53.4008 25.7716C54.1594 26.5302 55.1077 26.8857 56.222 26.8857Z" fill="#E7332B"/>
</svg>
